<svg xmlns="http://www.w3.org/2000/svg" xmlns:xlink="http://www.w3.org/1999/xlink" viewBox="0 0 1024 1024"><defs><style>.cls-1,.cls-5{fill:none;}.cls-2{opacity:0.05;fill:#fff}.cls-3{clip-path:url(#clip-path);}.cls-4{fill:#fff;}.cls-5{stroke:#fff;stroke-miterlimit:10;stroke-width:10px;}</style><clipPath id="clip-path"><rect class="cls-1" y="1416" width="1080" height="1081"/></clipPath></defs><title>Sana Logo</title><g id="Instagram_10" data-name="Instagram 10"><g class="cls-2"><g class="cls-3"><g id="_Group_" data-name="&lt;Group&gt;"><path id="_Compound_Path_" data-name="&lt;Compound Path&gt;" class="cls-4" d="M770.26,1168.67A96,96,0,0,0,841,1007.61L859,989.52a4,4,0,0,0,2.83,1.68l37.85,4.16.44,0a4,4,0,0,0,.44-8l-35.49-3.9,10.4-10.4a4.36,4.36,0,0,0,.52.11l37.85,4.15a3.25,3.25,0,0,0,.44,0,4,4,0,0,0,.43-8l-32-3.51,19.43-19.43a4,4,0,0,0-5.7-5.7l-19.92,19.92-10.51-27.12a4,4,0,1,0-7.52,2.91l11.66,30.1a3,3,0,0,0,.18.3l-8.58,8.58L851.28,947.3a4,4,0,0,0-7.56,2.83l11.66,31a2.88,2.88,0,0,0,.22.38l-20.35,20.35a96.05,96.05,0,1,0-65,166.76Zm0-184.09a87.68,87.68,0,0,1,59.29,23l-19,19a61.16,61.16,0,1,0,5.71,5.7l19-19a88,88,0,1,1-65-28.72Zm-2.84,90.86a4,4,0,0,0,2.84,1.18,4,4,0,0,0,2.86-1.18L785.53,1063a17.88,17.88,0,0,1,2.77,9.56,18.09,18.09,0,1,1-8.47-15.26l-12.41,12.41A4,4,0,0,0,767.42,1075.44Zm18.2-23.9a26.19,26.19,0,1,0,5.7,5.7L810.53,1038a53.17,53.17,0,1,1-5.7-5.7Z"/></g><g id="_Group_2" data-name="&lt;Group&gt;"><path id="_Compound_Path_2" data-name="&lt;Compound Path&gt;" class="cls-4" d="M61.22,1025.91a3.63,3.63,0,0,0,3.87,4.77l12.09-1.47L52.89,1069l-10.22-6.23a3.59,3.59,0,0,0-2.73-.43,3.64,3.64,0,0,0-2.25,1.64l-6.1,10a3.64,3.64,0,0,0,1.2,5l41.92,25.58a3.64,3.64,0,0,0,5-1.2l6.1-10a3.54,3.54,0,0,0,.43-2.72,3.61,3.61,0,0,0-1.64-2.27l-10.16-6.2,36.7-60.13a3.53,3.53,0,0,0,.44-2.71,3.61,3.61,0,0,0-1.64-2.27l-13.17-8a3.59,3.59,0,0,0-2.09-.52L69.11,1010a3.6,3.6,0,0,0-3.22,2.43Zm33.55-13.4,12.71,7.76-38.59,63.22,13.26,8.1-5.68,9.3-41.23-25.16,5.68-9.31,13.31,8.12L85,1024.2l-19.71,2.4L69.61,1014Z"/><path id="_Compound_Path_3" data-name="&lt;Compound Path&gt;" class="cls-4" d="M-76.65,1067.87a3.47,3.47,0,0,0,1.34,3.58l24.93,18.14-14,24.83a3.47,3.47,0,0,0,.2,3.74,3.38,3.38,0,0,0,1,.95,3.51,3.51,0,0,0,2.46.45l75.67-14.22-1.57,7.85c-.77,3.83.4,7.11,3.15,8.78a8.58,8.58,0,0,0,7.42.42l15.14-5.32a4.36,4.36,0,0,1,3.72.36,4.31,4.31,0,0,1,1.91,2.52l4.52,15.41a9,9,0,0,0,3.76,5.32,7,7,0,0,0,4.42.94l11.42,60.69a3.5,3.5,0,0,0,1.6,2.33,3.91,3.91,0,0,0,1,.41,3.49,3.49,0,0,0,3.57-1.24l17.32-22.11,27.62,13.54a3.49,3.49,0,0,0,5-3.77l-14-74.61a2,2,0,0,1,.34-.23,4.26,4.26,0,0,1,3.43-.28l15.24,5c3.24,1.06,6.27.61,8.32-1.25s2.82-4.82,2.09-8.14l-3.46-15.68a4.38,4.38,0,0,1,.62-3.39,4.3,4.3,0,0,1,2.92-1.83l15.83-2.64c3.35-.56,5.83-2.37,6.79-5s.25-5.58-1.95-8.18L150.69,1063a4.33,4.33,0,0,1-1-3.3,4.26,4.26,0,0,1,1.73-3l12.79-9.69c2.55-1.93,3.88-4.42,3.75-7-.15-2.94-2-5.43-5.57-6.88l-14.86-6.06a4.3,4.3,0,0,1-2.29-5.89L152,1006.7c2.25-4.79.48-8.63-2.28-10.32a9.33,9.33,0,0,0-5.79-1.13l-16,1.53a4.38,4.38,0,0,1-4.77-4.15l-.7-16c-.15-3.21-1.45-5.73-3.69-7.09-2.54-1.55-5.75-1.29-8.78.7L96.61,979a4.37,4.37,0,0,1-6.14-1.46L82.4,963.67c-2.07-3.54-5.49-5.2-8.71-4.36a8.67,8.67,0,0,0-5.31,4.5l-7.81,14a4.27,4.27,0,0,1-6.11,1.56l-13.74-8.61c-2.85-1.74-5.86-2-8.26-.67s-3.86,4-3.94,7.39l-.4,16a4.32,4.32,0,0,1-4.69,4.23l-16-1.24c-3.39-.26-6.23.91-7.79,3.2s-1.57,5.36-.06,8.41l7.1,14.4a4.29,4.29,0,0,1-2.18,5.92l-14.75,6.34c-3.12,1.35-5.09,3.7-5.4,6.45s1.09,5.48,3.85,7.48l5.24,3.81-67.34,12.67A3.47,3.47,0,0,0-76.65,1067.87ZM97,1141.54a7.22,7.22,0,0,0,.89-.31,6.65,6.65,0,0,0,2.11-.42,8.51,8.51,0,0,0,4.81-6l1.37-5,10.54,56.1L92.82,1174.2a3.49,3.49,0,0,0-4.27,1l-14.32,18.29-10.5-55.84,10.05-10.8a4.55,4.55,0,0,1,1.25-.91,4.22,4.22,0,0,1,2.81,1.3L89,1138.75h0C91.39,1141.22,94.31,1142.23,97,1141.54ZM-7.79,1043.23a2.66,2.66,0,0,1-1.08-1.2.42.42,0,0,1,.07-.13h0a3.33,3.33,0,0,1,1.25-.83l14.75-6.34a11.76,11.76,0,0,0,2-1.11,11.12,11.12,0,0,0,3.59-14.09l-7.11-14.4a4.34,4.34,0,0,1-.38-1.1h0a1.06,1.06,0,0,1,0-.45,2.51,2.51,0,0,1,1.61-.23l8.22.63,7.78.6a11.07,11.07,0,0,0,12-10.44c0-.14,0-.28,0-.41l.4-16.05a3.26,3.26,0,0,1,.3-1.46.52.52,0,0,1,.07-.11h.18a3.25,3.25,0,0,1,1.35.54l3.51,2.2L51,985.24a11.08,11.08,0,0,0,8.67,1.3,10.91,10.91,0,0,0,4-2c.11-.08.2-.2.31-.29a11.15,11.15,0,0,0,2.6-3.13l7.81-14c.53-.94,1-1.2,1.21-1.15a3.17,3.17,0,0,1,1,1.13l6.64,11.39L84.58,981c.1.17.22.32.32.48a11.3,11.3,0,0,0,3.54,3.48,11,11,0,0,0,8,1.36,11.44,11.44,0,0,0,3.86-1.59l13.44-8.78a5,5,0,0,1,.68-.38,2.43,2.43,0,0,1,.72-.21h.1a1,1,0,0,1,.15.26.91.91,0,0,1,.1.24,4,4,0,0,1,.18,1.08l.48,10.87.23,5.17a11.31,11.31,0,0,0,5.3,9,11.52,11.52,0,0,0,6.92,1.57l6.53-.62,9.44-.91a3,3,0,0,1,1.51.13l.1.05a2.5,2.5,0,0,1-.36,1.59L139,1018.32a11.19,11.19,0,0,0-.91,6.65,10.3,10.3,0,0,0,.69,2.36,11,11,0,0,0,6.1,6.08l14.87,6.07a3.57,3.57,0,0,1,1.33.9.24.24,0,0,1,0,.12,3,3,0,0,1-1,1.13l-12.8,9.69c-.3.23-.59.48-.87.73h0l-.18.18a11,11,0,0,0-3.08,5.37,12.48,12.48,0,0,0-.24,1.36,10.88,10.88,0,0,0,0,1.71,11.1,11.1,0,0,0,2.6,6.74l7.71,9.16,2.63,3.11a3.63,3.63,0,0,1,.72,1.2,1.39,1.39,0,0,1,.05.23,1.68,1.68,0,0,1-.66.38,4.59,4.59,0,0,1-.86.22l-9.93,1.66-5.9,1a11.11,11.11,0,0,0-9.08,13.42l3.46,15.67a2.7,2.7,0,0,1,0,1.62h0l-.1,0h0a3.17,3.17,0,0,1-1.49-.21l-15.23-5a11.1,11.1,0,0,0-8.8.74,12.27,12.27,0,0,0-1.68,1.12l0,0a11.93,11.93,0,0,0-1.44,1.4h0c-2.44,1.24-4,2.51-4.58,4.73L96,1133.39h0L85,1122a11.6,11.6,0,0,0-1.46-1.25c-.26-.19-.52-.39-.79-.55h0a11.84,11.84,0,0,0-1.55-.78l-.35-.14a10.59,10.59,0,0,0-1.43-.42c-.2-.05-.41-.09-.61-.12s-.64-.09-1-.11a10.6,10.6,0,0,0-1.26,0l-.42,0a11.78,11.78,0,0,0-2,.32h0a11.09,11.09,0,0,0-7.65,3.55l-9.41,10.09a3.48,3.48,0,0,0-.89,1.94h0a3.9,3.9,0,0,1-.22-.38.36.36,0,0,0,0-.09,4.07,4.07,0,0,1-.24-.66L51.23,1118a11.42,11.42,0,0,0-1.52-3.14A10.82,10.82,0,0,0,41,1110a10.37,10.37,0,0,0-1.93.1,11.53,11.53,0,0,0-2.22.52L21.66,1116a5.14,5.14,0,0,1-.55.15,3.09,3.09,0,0,1-.53.09H20.5a1,1,0,0,1-.44,0h0A.38.38,0,0,1,20,1116v0a3.23,3.23,0,0,1,0-1.47L22.15,1104a3.46,3.46,0,0,0,2.57-2.68l.15-.73a11.13,11.13,0,0,0-1.81-8.69,11.34,11.34,0,0,0-2.11-2.26h0a10.6,10.6,0,0,0-1.27-1.33l0,0a10.35,10.35,0,0,0-1.54-1.13,11.16,11.16,0,0,0-2-1h0a10.81,10.81,0,0,0-2.19-.55h0l-15.24-2.24c.08-.11.14-.22.24-.34L9,1070.51H9A11.12,11.12,0,0,0,11.4,1062a11,11,0,0,0-4.08-7.18h0a11.74,11.74,0,0,0-.82-.92,9.77,9.77,0,0,0-1.31-1.17L.8,1049.48Zm7.18,15.29L2.62,1060a4.06,4.06,0,0,1,.34,1.14,4.33,4.33,0,0,1-1,3.31l-10.1,12.47a8.7,8.7,0,0,0-2.14,6.91,6.74,6.74,0,0,0,2.42,4.1,8.7,8.7,0,0,0,6.42,3.85l15.87,2.33a4.44,4.44,0,0,1,1.66.58,4.33,4.33,0,0,1,.38,2.78l-.1.51-71.07,13.36,11.88-21a3.48,3.48,0,0,0-1-4.53l-20.92-15.22Z"/></g></g></g></g><g id="Logo_2" data-name="Logo 2" style="fill: #fff"><path d="M331.83,531.77c2.54,3.6,3.81,5.92,3.81,8.67,0,4-3.17,7.19-7.61,7.19-3.6,0-6.14-1.9-8-4.44-5.92-9.3-14-16.07-28.55-16.07-16.7,0-27.49,8.46-27.49,22,0,11.42,7.62,18.61,22.21,24.53l12,4.65c27.28,10.58,44,20.3,44,42.51,0,27.06-26.64,41.23-51,41.23-19,0-38.27-8.67-47.15-24.95-1.06-1.9-3-4.65-3-7.82,0-4.23,2.75-8,7.61-8,4.23,0,7,2.54,8.88,5.5,7,12.69,19.24,19,33.62,19,15.65,0,32.78-7,32.78-25,0-15.44-12.27-20.94-28.76-27.28l-13.32-5.29C261,580,245.77,569,245.77,549.11c0-23.05,20.3-38.06,45.25-38.06C311.11,511.05,324.43,520.78,331.83,531.77Z"/><path d="M491.28,652.94a8.72,8.72,0,0,1-8.88,8.46,9.57,9.57,0,0,1-8.46-5.71l-15-34.68H390.41l-15,34.68a9.58,9.58,0,0,1-8.46,5.71,8.72,8.72,0,0,1-8.88-8.46,10.83,10.83,0,0,1,1.05-4.65l56.68-129.84c1.9-4.23,4.44-6.77,8.88-6.77s7,2.54,8.67,6.77l56.88,129.84A10.83,10.83,0,0,1,491.28,652.94Zm-38.7-46.52L424.67,541.5l-27.92,64.92Z"/><path d="M629.57,521.2V652.94a8,8,0,0,1-8.24,8.46c-3.81,0-6.56-1.69-9.31-5.29L529.55,544.88V652.09a9.09,9.09,0,1,1-18.18,0V520.35a8,8,0,0,1,8.25-8.45c3.8,0,6.55,1.69,9.3,5.28l82.47,111.23V521.2a9.09,9.09,0,1,1,18.18,0Z"/><path d="M782.88,652.94A8.72,8.72,0,0,1,774,661.4a9.58,9.58,0,0,1-8.46-5.71l-15-34.68H682l-15,34.68a9.57,9.57,0,0,1-8.46,5.71,8.72,8.72,0,0,1-8.88-8.46,10.83,10.83,0,0,1,1.06-4.65l56.67-129.84c1.91-4.23,4.44-6.77,8.88-6.77s7,2.54,8.67,6.77l56.89,129.84A10.83,10.83,0,0,1,782.88,652.94Zm-38.69-46.52L716.27,541.5l-27.91,64.92Z"/><polyline class="cls-5" points="432 425.54 187.5 425.54 187.5 747.54 375 747.54"/><polyline class="cls-5" points="649 747.54 836.5 747.54 836.5 425.54 592 425.54"/><path d="M575.8,349.35a63.8,63.8,0,1,0-127.6,0,62.93,62.93,0,0,0,13.66,39.36,243.09,243.09,0,0,1,17.43,25.37v38.8a6.39,6.39,0,0,0,6.39,6.39h7.25v3.09a13.49,13.49,0,0,0,13.49,13.49h11.16a13.49,13.49,0,0,0,13.49-13.49v-3.09h7.25a6.39,6.39,0,0,0,6.39-6.39V414.13a238.27,238.27,0,0,1,17.43-25.42A62.94,62.94,0,0,0,575.8,349.35Zm-73.06,56.54-11.05-48.16,6.64-4.09,8.2,7.71a3.3,3.3,0,0,0,2.4.86,3.18,3.18,0,0,0,2.27-1.16l7.08-8.64,4.13,8.07a3.2,3.2,0,0,0,2.85,1.74,3.27,3.27,0,0,0,1.22-.24l5.37-2.23-10.59,46.14Zm29.19,12.78v10.71H492.07V418.67Zm-39.86,27.82V435.77h39.86v10.72Zm42.63-40.6h-3.62l12.1-52.71a4.79,4.79,0,0,0-9.34-2.14l-.24,1.06L526.75,355l-5-9.79a3.2,3.2,0,0,0-2.51-1.72,3.13,3.13,0,0,0-2.8,1.15l-8,9.77-7.5-7.05a3.2,3.2,0,0,0-3.86-.39l-6.89,4.23,0-.11a4.8,4.8,0,0,0-9.35,2.14l12.1,52.71H489.3a253.72,253.72,0,0,0-17.41-25.09A50.3,50.3,0,0,1,461,349.35a51,51,0,0,1,102.06,0,50.32,50.32,0,0,1-10.92,31.45A251.15,251.15,0,0,0,534.7,405.89Z"/><rect x="402.58" y="326.76" width="9.17" height="49.14" rx="4.59" ry="4.59" transform="translate(758.5 -55.83) rotate(90)"/><rect x="507.41" y="224.55" width="9.17" height="49.14" rx="4.59" ry="4.59"/><rect x="612.25" y="326.76" width="9.17" height="49.14" rx="4.59" ry="4.59" transform="translate(968.17 -265.5) rotate(90)"/><rect x="433.28" y="252.63" width="9.17" height="49.14" rx="4.59" ry="4.59" transform="translate(943.5 163.59) rotate(135)"/><rect x="581.54" y="252.63" width="9.17" height="49.14" rx="4.59" ry="4.59" transform="translate(367.68 -333.27) rotate(45)"/><path d="M455.42,751.55c0,19.36-14.53,28.72-26.47,28.72-9.57,0-17-5.81-19.15-12.37v7.75a4.46,4.46,0,1,1-8.92,0V707.23a4.52,4.52,0,1,1,9,0V734c3.45-7.1,11-11.08,19-11.08C440.89,722.94,455.42,732.4,455.42,751.55Zm-8.93,0c0-14.09-10.11-20.87-18.83-20.87-8.39,0-18.29,6.13-18.29,20.87,0,14.42,9.9,20.87,18.29,20.87C436.38,772.42,446.49,765.75,446.49,751.55Z"/><path d="M466.17,706.15a4.58,4.58,0,1,1,4.63,4.52A4.64,4.64,0,0,1,466.17,706.15Zm9,21.63v47.76a4.47,4.47,0,1,1-8.93,0V727.78a4.47,4.47,0,1,1,8.93,0Z"/><path d="M492.74,780.06a4.61,4.61,0,0,1-4.51-4.52V707.12a4.46,4.46,0,0,1,8.92,0v68.42A4.59,4.59,0,0,1,492.74,780.06Z"/><path d="M510.06,706.15a4.58,4.58,0,1,1,4.63,4.52A4.64,4.64,0,0,1,510.06,706.15Zm9,21.63v47.76a4.47,4.47,0,1,1-8.93,0V727.78a4.47,4.47,0,1,1,8.93,0Z"/><path d="M623.12,747v28.51a4.52,4.52,0,0,1-4.41,4.52,4.62,4.62,0,0,1-4.52-4.52V747c0-11.72-7-16.13-14.52-16.13-11,0-16.56,9.25-17.53,15.38v29.26a4.62,4.62,0,0,1-4.52,4.52,4.52,4.52,0,0,1-4.41-4.52V747c0-11.72-7.1-16.13-14.63-16.13-11,0-16.57,9.25-17.54,15.38v29.26a4.47,4.47,0,1,1-8.93,0V727.78a4.47,4.47,0,1,1,8.93,0v8.71c.65-3.66,7.32-13.45,20.12-13.45,8,0,16.35,3.77,19.58,14,3-6.56,10.11-14,21.41-14C612.37,723,623.12,729.18,623.12,747Z"/></g></svg>